<svg xmlns="http://www.w3.org/2000/svg" viewBox="20 168.89917376583583 535.0033745597979 237.20165246832835"><rect height="100%" width="100%" x="20" y="168.89917376583583" fill="rgba(255, 255, 255, 1)"/> <svg id="Layer_1" xmlns="http://www.w3.org/2000/svg" xmlns:xlink="http://www.w3.org/1999/xlink" viewBox="527.02001953125 89 288.97998046875 361.199951171875" height="97.20165246832838" width="77.76670005938813" y="238.89917376583583" x="90" preserveAspectRatio="xMinYMin" style="overflow: visible;"><linearGradient id="linear-gradient" x1="671.5" y1="55.13" x2="671.5" y2="442.42" gradientUnits="userSpaceOnUse" style=""><stop offset="0" stop-color="#005fe6"></stop><stop offset="1" stop-color="aqua"></stop></linearGradient><linearGradient id="linear-gradient-2" x1="671" x2="671" xlink:href="#linear-gradient" style=""></linearGradient><linearGradient id="linear-gradient-3" x1="671" x2="671" xlink:href="#linear-gradient" style=""></linearGradient><path class="cls-3" d="M799.37,195.47l-43.37-25.04v30.02l30.37,17.53c2.24,1.29,3.63,3.71,3.63,6.3v128.44c0,2.59-1.39,5-3.63,6.3l-111.23,64.22c-1.1,.64-2.36,.97-3.63,.97s-2.53-.34-3.63-.97l-111.23-64.22c-2.24-1.29-3.63-3.71-3.63-6.3V224.28c0-2.59,1.39-5,3.63-6.3l31.37-18.11v-30.02l-44.37,25.61c-10.29,5.94-16.63,16.93-16.63,28.81v128.44c0,11.89,6.34,22.87,16.63,28.81l111.23,64.22c5.15,2.97,10.89,4.46,16.63,4.46s11.49-1.49,16.63-4.46l111.23-64.22c10.29-5.94,16.63-16.93,16.63-28.81V224.28c0-11.89-6.34-22.87-16.63-28.81Z" style="fill: #F74040; fill-opacity: 1;"></path><path class="cls-1" d="M613.26,360.55l55.25,29.17c1.81,.89,3.77,1.33,5.74,1.33,2.18,0,4.37-.55,6.33-1.64l48.75-29.17c4.12-2.3,6.67-6.64,6.67-11.36V154.6c0-7.18-5.82-13-13-13s-13,5.82-13,13v186.64l-36.12,22.13-41.88-22.59V154.6c0-7.18-5.82-13-13-13s-13,5.82-13,13v194.28c0,4.96,2.82,9.48,7.26,11.67Z" style="fill: #F74040; fill-opacity: 1;"></path><path class="cls-2" d="M671,331c7.18,0,13-5.82,13-13V102c0-7.18-5.82-13-13-13s-13,5.82-13,13v216c0,7.18,5.82,13,13,13Z" style="fill: #F74040; fill-opacity: 1;"></path></svg> <svg y="309.8305743192726" viewBox="0.25 3.450000047683716 288.3900146484375 13.84999942779541" x="194.94337700120408" height="13.84999942779541" width="288.3900146484375" style="overflow: visible;"><g fill="#DE3A3A" fill-opacity="0.49" style=""><path d="M9.49 14.43L1.67 14.43L1.67 17.30L0.25 17.30L0.25 13.15L1.38 13.15Q2.17 12.25 2.59 11.16Q3.02 10.06 3.21 8.85Q3.41 7.63 3.45 6.33Q3.48 5.03 3.50 3.70L3.50 3.70L9.57 3.70L9.57 13.15L10.92 13.15L10.92 17.30L9.49 17.30L9.49 14.43ZM8.07 4.99L4.97 4.99Q4.92 6.01 4.87 7.07Q4.82 8.13 4.64 9.17Q4.46 10.22 4.12 11.23Q3.78 12.23 3.16 13.15L3.16 13.15L8.07 13.15L8.07 4.99ZM18.01 9.06L18.01 9.06Q18.01 7.68 18.42 6.63Q18.83 5.57 19.53 4.87Q20.24 4.17 21.17 3.81Q22.11 3.45 23.16 3.45L23.16 3.45Q24.20 3.45 25.12 3.81Q26.04 4.17 26.74 4.87Q27.44 5.57 27.85 6.63Q28.26 7.68 28.26 9.06L28.26 9.06Q28.26 10.44 27.85 11.49Q27.44 12.54 26.74 13.25Q26.04 13.95 25.12 14.31Q24.20 14.66 23.16 14.66L23.16 14.66Q22.11 14.66 21.17 14.31Q20.24 13.95 19.53 13.25Q18.83 12.54 18.42 11.49Q18.01 10.44 18.01 9.06ZM19.59 9.06L19.59 9.06Q19.59 10.03 19.83 10.83Q20.08 11.63 20.54 12.19Q21.00 12.74 21.65 13.04Q22.31 13.35 23.13 13.35L23.13 13.35Q23.95 13.35 24.60 13.04Q25.25 12.74 25.71 12.19Q26.17 11.63 26.41 10.83Q26.66 10.03 26.66 9.06L26.66 9.06Q26.66 8.08 26.41 7.28Q26.17 6.49 25.71 5.93Q25.25 5.37 24.60 5.07Q23.95 4.77 23.13 4.77L23.13 4.77Q22.31 4.77 21.65 5.07Q21.00 5.37 20.54 5.93Q20.08 6.49 19.83 7.28Q19.59 8.08 19.59 9.06ZM44.44 14.43L42.75 14.43Q42.52 13.97 42.19 13.40Q41.87 12.84 41.48 12.22Q41.09 11.61 40.68 11.00Q40.26 10.39 39.87 9.85L39.87 9.85Q39.48 10.39 39.06 11.00Q38.65 11.61 38.27 12.22Q37.89 12.84 37.56 13.40Q37.22 13.97 36.99 14.43L36.99 14.43L35.33 14.43Q36.03 13.07 36.95 11.66Q37.87 10.25 38.91 8.76L38.91 8.76L35.47 3.70L37.21 3.70L39.85 7.70L42.47 3.70L44.19 3.70L40.81 8.70Q41.87 10.20 42.80 11.63Q43.73 13.05 44.44 14.43L44.44 14.43ZM51.47 9.06L51.47 9.06Q51.47 7.68 51.88 6.63Q52.29 5.57 52.99 4.87Q53.70 4.17 54.63 3.81Q55.57 3.45 56.62 3.45L56.62 3.45Q57.66 3.45 58.58 3.81Q59.50 4.17 60.20 4.87Q60.90 5.57 61.31 6.63Q61.72 7.68 61.72 9.06L61.72 9.06Q61.72 10.44 61.31 11.49Q60.90 12.54 60.20 13.25Q59.50 13.95 58.58 14.31Q57.66 14.66 56.62 14.66L56.62 14.66Q55.57 14.66 54.63 14.31Q53.70 13.95 52.99 13.25Q52.29 12.54 51.88 11.49Q51.47 10.44 51.47 9.06ZM53.05 9.06L53.05 9.06Q53.05 10.03 53.29 10.83Q53.54 11.63 54.00 12.19Q54.46 12.74 55.11 13.04Q55.77 13.35 56.59 13.35L56.59 13.35Q57.41 13.35 58.06 13.04Q58.71 12.74 59.17 12.19Q59.63 11.63 59.87 10.83Q60.12 10.03 60.12 9.06L60.12 9.06Q60.12 8.08 59.87 7.28Q59.63 6.49 59.17 5.93Q58.71 5.37 58.06 5.07Q57.41 4.77 56.59 4.77L56.59 4.77Q55.77 4.77 55.11 5.07Q54.46 5.37 54.00 5.93Q53.54 6.49 53.29 7.28Q53.05 8.08 53.05 9.06ZM77.97 14.43L70.16 14.43L70.16 17.30L68.73 17.30L68.73 13.15L69.86 13.15Q70.65 12.25 71.08 11.16Q71.50 10.06 71.70 8.85Q71.89 7.63 71.93 6.33Q71.97 5.03 71.98 3.70L71.98 3.70L78.05 3.70L78.05 13.15L79.40 13.15L79.40 17.30L77.97 17.30L77.97 14.43ZM76.55 4.99L73.45 4.99Q73.41 6.01 73.35 7.07Q73.30 8.13 73.12 9.17Q72.94 10.22 72.60 11.23Q72.26 12.23 71.64 13.15L71.64 13.15L76.55 13.15L76.55 4.99ZM93.95 8.18L93.95 3.70L95.46 3.70L95.46 14.43L93.95 14.43L93.95 9.48L88.70 9.48L88.70 14.43L87.20 14.43L87.20 3.70L88.70 3.70L88.70 8.18L93.95 8.18ZM103.88 9.06L103.88 9.06Q103.88 7.68 104.29 6.63Q104.70 5.57 105.40 4.87Q106.11 4.17 107.04 3.81Q107.98 3.45 109.03 3.45L109.03 3.45Q110.07 3.45 110.99 3.81Q111.91 4.17 112.61 4.87Q113.31 5.57 113.72 6.63Q114.13 7.68 114.13 9.06L114.13 9.06Q114.13 10.44 113.72 11.49Q113.31 12.54 112.61 13.25Q111.91 13.95 110.99 14.31Q110.07 14.66 109.03 14.66L109.03 14.66Q107.98 14.66 107.04 14.31Q106.11 13.95 105.40 13.25Q104.70 12.54 104.29 11.49Q103.88 10.44 103.88 9.06ZM105.46 9.06L105.46 9.06Q105.46 10.03 105.71 10.83Q105.95 11.63 106.41 12.19Q106.87 12.74 107.52 13.04Q108.18 13.35 109.00 13.35L109.00 13.35Q109.82 13.35 110.47 13.04Q111.12 12.74 111.58 12.19Q112.04 11.63 112.29 10.83Q112.53 10.03 112.53 9.06L112.53 9.06Q112.53 8.08 112.29 7.28Q112.04 6.49 111.58 5.93Q111.12 5.37 110.47 5.07Q109.82 4.77 109.00 4.77L109.00 4.77Q108.18 4.77 107.52 5.07Q106.87 5.37 106.41 5.93Q105.95 6.49 105.71 7.28Q105.46 8.08 105.46 9.06ZM129.49 14.43L122.55 14.43L122.55 3.70L129.10 3.70L129.10 4.99L124.05 4.99L124.05 8.18L128.54 8.18L128.54 9.43L124.05 9.43L124.05 13.15L129.49 13.15L129.49 14.43ZM146.92 9.06L146.92 9.06Q146.92 7.68 147.33 6.63Q147.74 5.57 148.45 4.87Q149.15 4.17 150.09 3.81Q151.03 3.45 152.08 3.45L152.08 3.45Q153.12 3.45 154.04 3.81Q154.96 4.17 155.66 4.87Q156.35 5.57 156.76 6.63Q157.17 7.68 157.17 9.06L157.17 9.06Q157.17 10.44 156.76 11.49Q156.35 12.54 155.66 13.25Q154.96 13.95 154.04 14.31Q153.12 14.66 152.08 14.66L152.08 14.66Q151.03 14.66 150.09 14.31Q149.15 13.95 148.45 13.25Q147.74 12.54 147.33 11.49Q146.92 10.44 146.92 9.06ZM148.50 9.06L148.50 9.06Q148.50 10.03 148.75 10.83Q149.00 11.63 149.45 12.19Q149.91 12.74 150.57 13.04Q151.23 13.35 152.05 13.35L152.05 13.35Q152.87 13.35 153.52 13.04Q154.17 12.74 154.63 12.19Q155.08 11.63 155.33 10.83Q155.58 10.03 155.58 9.06L155.58 9.06Q155.58 8.08 155.33 7.28Q155.08 6.49 154.63 5.93Q154.17 5.37 153.52 5.07Q152.87 4.77 152.05 4.77L152.05 4.77Q151.23 4.77 150.57 5.07Q149.91 5.37 149.45 5.93Q149.00 6.49 148.75 7.28Q148.50 8.08 148.50 9.06ZM164.09 3.70L172.35 3.70L172.35 5.00L168.97 5.00L168.97 14.43L167.47 14.43L167.47 5.00L164.09 5.00L164.09 3.70ZM179.27 9.06L179.27 9.06Q179.27 7.68 179.68 6.63Q180.09 5.57 180.79 4.87Q181.50 4.17 182.43 3.81Q183.37 3.45 184.42 3.45L184.42 3.45Q185.46 3.45 186.38 3.81Q187.30 4.17 188.00 4.87Q188.70 5.57 189.11 6.63Q189.52 7.68 189.52 9.06L189.52 9.06Q189.52 10.44 189.11 11.49Q188.70 12.54 188.00 13.25Q187.30 13.95 186.38 14.31Q185.46 14.66 184.42 14.66L184.42 14.66Q183.37 14.66 182.43 14.31Q181.50 13.95 180.79 13.25Q180.09 12.54 179.68 11.49Q179.27 10.44 179.27 9.06ZM180.85 9.06L180.85 9.06Q180.85 10.03 181.09 10.83Q181.34 11.63 181.80 12.19Q182.26 12.74 182.91 13.04Q183.57 13.35 184.39 13.35L184.39 13.35Q185.21 13.35 185.86 13.04Q186.51 12.74 186.97 12.19Q187.43 11.63 187.67 10.83Q187.92 10.03 187.92 9.06L187.92 9.06Q187.92 8.08 187.67 7.28Q187.43 6.49 186.97 5.93Q186.51 5.37 185.86 5.07Q185.21 4.77 184.39 4.77L184.39 4.77Q183.57 4.77 182.91 5.07Q182.26 5.37 181.80 5.93Q181.34 6.49 181.09 7.28Q180.85 8.08 180.85 9.06ZM197.94 3.70L206.10 3.70L206.10 14.43L204.60 14.43L204.60 4.99L199.44 4.99L199.44 14.43L197.94 14.43L197.94 3.70ZM221.74 4.99L218.63 4.99Q218.60 5.85 218.56 6.67Q218.53 7.48 218.47 8.24Q218.41 9.01 218.29 9.74Q218.16 10.47 217.95 11.16L217.95 11.16Q217.73 11.86 217.41 12.47Q217.09 13.08 216.62 13.54Q216.15 14.00 215.51 14.28Q214.86 14.55 214.00 14.59L214.00 14.59L213.83 13.28Q214.91 13.16 215.51 12.60Q216.10 12.05 216.49 10.90L216.49 10.90Q216.92 9.60 217.04 7.76Q217.16 5.93 217.16 3.70L217.16 3.70L223.24 3.70L223.24 14.43L221.74 14.43L221.74 4.99ZM239.03 14.43L232.10 14.43L232.10 3.70L238.65 3.70L238.65 4.99L233.60 4.99L233.60 8.18L238.09 8.18L238.09 9.43L233.60 9.43L233.60 13.15L239.03 13.15L239.03 14.43ZM253.88 8.18L253.88 3.70L255.38 3.70L255.38 14.43L253.88 14.43L253.88 9.48L248.63 9.48L248.63 14.43L247.13 14.43L247.13 3.70L248.63 3.70L248.63 8.18L253.88 8.18ZM265.49 14.43L264.24 14.43L264.24 3.70L265.71 3.70L265.71 11.64Q266.21 10.82 266.93 9.77Q267.65 8.72 268.46 7.63Q269.27 6.53 270.10 5.50Q270.93 4.47 271.66 3.70L271.66 3.70L272.85 3.70L272.85 14.43L271.38 14.43L271.38 6.05Q270.94 6.55 270.43 7.20Q269.92 7.85 269.38 8.59Q268.84 9.32 268.29 10.11Q267.74 10.90 267.23 11.67Q266.72 12.43 266.28 13.15Q265.84 13.86 265.49 14.43L265.49 14.43ZM288.64 14.43L281.71 14.43L281.71 3.70L288.26 3.70L288.26 4.99L283.21 4.99L283.21 8.18L287.70 8.18L287.70 9.43L283.21 9.43L283.21 13.15L288.64 13.15L288.64 14.43Z" transform="translate(0, 0)"></path></g></svg> <svg y="267.4179665617204" viewBox="3.9700000286102295 15.279999732971191 290.05999755859375 37.42000198364258" x="194.94337700120414" height="37.42000198364258" width="290.05999755859375" style="overflow: visible;"><g fill="#000000" fill-opacity="1" style=""><path d="M20.44 52.18L7.48 52.18Q5.78 52.18 4.88 51.28Q3.97 50.37 3.97 48.67L3.97 48.67L3.97 19.30Q3.97 17.60 4.88 16.70Q5.78 15.79 7.48 15.79L7.48 15.79L19.87 15.79Q23.69 15.79 26.37 16.93Q29.06 18.06 30.48 20.18Q31.90 22.30 31.90 25.24L31.90 25.24Q31.90 28.54 29.99 30.81Q28.08 33.08 24.77 33.86L24.77 33.86L24.77 33.08Q28.59 33.65 30.71 35.97Q32.82 38.30 32.82 42.01L32.82 42.01Q32.82 46.86 29.55 49.52Q26.27 52.18 20.44 52.18L20.44 52.18ZM10.32 36.23L10.32 47.17L19.61 47.17Q23.12 47.17 24.77 45.81Q26.43 44.44 26.43 41.70L26.43 41.70Q26.43 38.92 24.77 37.57Q23.12 36.23 19.61 36.23L19.61 36.23L10.32 36.23ZM10.32 20.80L10.32 31.22L18.73 31.22Q22.14 31.22 23.82 29.91Q25.50 28.59 25.50 26.01L25.50 26.01Q25.50 23.43 23.82 22.12Q22.14 20.80 18.73 20.80L18.73 20.80L10.32 20.80ZM58.27 52.59L58.27 52.59Q56.67 52.59 55.82 51.69Q54.97 50.79 54.97 49.19L54.97 49.19L54.97 18.79Q54.97 17.14 55.82 16.26Q56.67 15.38 58.27 15.38L58.27 15.38Q59.87 15.38 60.72 16.26Q61.57 17.14 61.57 18.79L61.57 18.79L61.57 49.19Q61.57 50.79 60.75 51.69Q59.92 52.59 58.27 52.59ZM97.08 52.59L97.08 52.59Q95.48 52.59 94.63 51.69Q93.78 50.79 93.78 49.19L93.78 49.19L93.78 21.32L83.71 21.32Q82.37 21.32 81.62 20.57Q80.88 19.82 80.88 18.53L80.88 18.53Q80.88 17.19 81.62 16.49Q82.37 15.79 83.71 15.79L83.71 15.79L110.45 15.79Q111.79 15.79 112.54 16.49Q113.29 17.19 113.29 18.53L113.29 18.53Q113.29 19.82 112.54 20.57Q111.79 21.32 110.45 21.32L110.45 21.32L100.38 21.32L100.38 49.19Q100.38 50.79 99.56 51.69Q98.73 52.59 97.08 52.59ZM149.00 52.18L136.05 52.18Q134.34 52.18 133.44 51.28Q132.54 50.37 132.54 48.67L132.54 48.67L132.54 19.30Q132.54 17.60 133.44 16.70Q134.34 15.79 136.05 15.79L136.05 15.79L148.43 15.79Q152.25 15.79 154.94 16.93Q157.62 18.06 159.04 20.18Q160.46 22.30 160.46 25.24L160.46 25.24Q160.46 28.54 158.55 30.81Q156.64 33.08 153.34 33.86L153.34 33.86L153.34 33.08Q157.16 33.65 159.27 35.97Q161.39 38.30 161.39 42.01L161.39 42.01Q161.39 46.86 158.11 49.52Q154.83 52.18 149.00 52.18L149.00 52.18ZM138.89 36.23L138.89 47.17L148.18 47.17Q151.69 47.17 153.34 45.81Q154.99 44.44 154.99 41.70L154.99 41.70Q154.99 38.92 153.34 37.57Q151.69 36.23 148.18 36.23L148.18 36.23L138.89 36.23ZM138.89 20.80L138.89 31.22L147.30 31.22Q150.71 31.22 152.38 29.91Q154.06 28.59 154.06 26.01L154.06 26.01Q154.06 23.43 152.38 22.12Q150.71 20.80 147.30 20.80L147.30 20.80L138.89 20.80ZM199.84 52.70L199.84 52.70Q194.58 52.70 190.63 50.37Q186.68 48.05 184.51 43.84Q182.34 39.64 182.34 33.96L182.34 33.96Q182.34 29.68 183.58 26.24Q184.82 22.81 187.12 20.36Q189.41 17.91 192.64 16.59Q195.87 15.28 199.84 15.28L199.84 15.28Q205.16 15.28 209.08 17.57Q213.00 19.87 215.17 24.05Q217.34 28.23 217.34 33.91L217.34 33.91Q217.34 38.19 216.10 41.65Q214.86 45.11 212.56 47.59Q210.27 50.06 207.04 51.38Q203.81 52.70 199.84 52.70ZM199.84 47.02L199.84 47.02Q203.19 47.02 205.54 45.47Q207.89 43.92 209.16 40.98Q210.42 38.04 210.42 33.96L210.42 33.96Q210.42 27.77 207.66 24.36Q204.90 20.95 199.84 20.95L199.84 20.95Q196.54 20.95 194.16 22.48Q191.79 24.00 190.52 26.92Q189.26 29.83 189.26 33.96L189.26 33.96Q189.26 40.10 192.05 43.56Q194.83 47.02 199.84 47.02ZM242.83 52.59L242.83 52.59Q241.23 52.59 240.38 51.69Q239.53 50.79 239.53 49.19L239.53 49.19L239.53 18.79Q239.53 17.14 240.38 16.26Q241.23 15.38 242.83 15.38L242.83 15.38Q244.43 15.38 245.28 16.26Q246.14 17.14 246.14 18.79L246.14 18.79L246.14 49.19Q246.14 50.79 245.31 51.69Q244.48 52.59 242.83 52.59ZM291.14 52.18L272.92 52.18Q271.32 52.18 270.44 51.28Q269.57 50.37 269.57 48.77L269.57 48.77L269.57 18.99Q269.57 17.34 270.42 16.49Q271.27 15.64 272.87 15.64L272.87 15.64Q274.47 15.64 275.32 16.49Q276.17 17.34 276.17 18.99L276.17 18.99L276.17 46.55L291.14 46.55Q292.53 46.55 293.28 47.28Q294.03 48.00 294.03 49.34L294.03 49.34Q294.03 50.68 293.28 51.43Q292.53 52.18 291.14 52.18L291.14 52.18Z" transform="translate(0, 0)"></path></g></svg></svg>